# xmcd
#
# Track frame offsets: 
#        150
#        1604
#        2247
#        3324
#        4390
#        9111
#        22412
#        38885
#        40669
#        44918
#        47315
#        47792
#        63688
#        78770
#        102380
#        103789
#        116357
#        119767
#        125819
#        149214
#        153225
#        161770
#        177842
#        178612
#        179747
#        194973
#
# Disc length: 2821 seconds
#
# Revision: 0
# Processed by: cddbd v1.5.2PL0 Copyright (c) Steve Scherf et al.
# Submitted via: ExactAudioCopy v0.95b4
#
DISCID=6e0b031a
DTITLE=The Beatles  - AB  Road - Complete Purple Chick Set v1.1 Jan.30
DTITLE=Various Artist - D2  FLAC
DYEAR=1900
DGENRE=
TTITLE0=Roll
TTITLE1=Slate
TTITLE2=Dialogue
TTITLE3=Roll
TTITLE4=Slate
TTITLE5=Get Back
TTITLE6=Get Back
TTITLE7=Dialogue
TTITLE8=I Want You (She's So Heavy)
TTITLE9=Dialogue
TTITLE10=Take
TTITLE11=Get Back - Stereo
TTITLE12=Don't Let Me Down - Stereo
TTITLE13=I've Got A Feeling - Stereo
TTITLE14=One After 909
TTITLE15=One After 909 - Stereo
TTITLE16=Danny Boy - Stereo
TTITLE17=Dig A Pony
TTITLE18=Dig A Pony - Stereo
TTITLE19=God Save The Queen
TTITLE20=Warmup
TTITLE21=I've Got A Feeling - parts Stereo
TTITLE22=A Pretty Girl Is Like A Melody
TTITLE23=Get Back
TTITLE24=Don't Let Me Down Part Stereo
TTITLE25=Get Back - Stereo
EXTD=
EXTT0=
EXTT1=
EXTT2=
EXTT3=
EXTT4=
EXTT5=
EXTT6=
EXTT7=
EXTT8=
EXTT9=
EXTT10=
EXTT11=
EXTT12=
EXTT13=
EXTT14=
EXTT15=
EXTT16=
EXTT17=
EXTT18=
EXTT19=
EXTT20=
EXTT21=
EXTT22=
EXTT23=
EXTT24=
EXTT25=
PLAYORDER=
